# This file uses centimeters as units for non-parametric coordinates.

mtllib Lilypad.mtl
g default
v 63.849989 -0.316312 -20.106824
v 48.868681 -0.316312 -37.219061
v 26.447559 -0.316312 -48.653093
v 0.000035 -0.316312 -52.668197
v -26.447495 -0.316312 -48.653110
v -48.868633 -0.316312 -37.219098
v -63.849966 -0.316312 -20.106873
v -69.110719 -0.316312 0.078375
v -63.849978 -0.316312 20.263626
v -48.868669 -0.316312 37.375862
v -26.447539 -0.316312 48.809891
v -0.000010 -0.316312 52.824990
v 26.447519 -0.316312 48.809897
v 48.868653 -0.316312 37.375873
v 63.849970 -0.316312 20.263644
v 69.110719 -0.316312 0.078394
v 63.849989 3.566357 -20.106824
v 48.868681 3.566357 -37.219061
v 26.447559 3.566357 -48.653093
v 0.000035 3.566357 -52.668197
v -26.447495 3.566357 -48.653110
v -48.868633 3.566357 -37.219098
v -63.849966 3.566357 -20.106873
v -69.110719 3.566357 0.078375
v -63.849978 3.566357 20.263626
v -48.868669 3.566357 37.375862
v -26.447539 3.566357 48.809891
v -0.000010 3.566357 52.824990
v 26.447519 3.566357 48.809897
v 48.868653 3.566357 37.375873
v 63.849970 3.566357 20.263644
v 69.110719 3.566357 0.078394
v 0.000000 -0.316312 0.078394
v 0.000000 3.566357 0.078394
v 64.759904 3.566357 0.078394
v 59.830352 3.566357 18.992896
v 45.792165 3.566357 35.027841
v 24.782536 3.566357 45.742046
v -0.000010 3.566357 49.504366
v -24.782555 3.566357 45.742038
v -45.792181 3.566357 35.027829
v -59.830360 3.566357 18.992882
v -64.759904 3.566357 0.078377
v -59.830344 3.566357 -18.836125
v -45.792149 3.566357 -34.871066
v -24.782514 3.566357 -45.585260
v 0.000033 3.566357 -49.347574
v 24.782575 3.566357 -45.585240
v 45.792193 3.566357 -34.871026
v 59.830368 3.566357 -18.836081
v 64.570346 7.160744 -20.324945
v 49.420019 7.160744 -37.630242
v 47.989660 7.160744 -36.492803
v 62.701499 7.160744 -19.688376
v 26.745941 7.160744 -49.193271
v 25.971839 7.160744 -47.721166
v 0.000037 7.160744 -54.976588
v 0.000034 7.160744 -51.664049
v -27.637832 7.160744 -50.780793
v -25.971773 7.160744 -47.721189
v -49.419971 7.160744 -37.630279
v -47.989616 7.160744 -36.492843
v -64.570322 7.160744 -20.324993
v -62.701472 7.160744 -19.688423
v -69.890423 7.160744 0.087986
v -67.867596 7.160744 0.133746
v -64.570338 7.160744 20.500967
v -62.701487 7.160744 19.955918
v -49.420007 7.160744 37.806266
v -47.989648 7.160744 36.760346
v -26.745921 7.160744 49.369292
v -25.971817 7.160744 47.988706
v -0.000010 7.160744 53.429687
v -0.000010 7.160744 51.931583
v 26.745899 7.160744 49.369298
v 25.971797 7.160744 47.988717
v 49.419991 7.160744 37.806277
v 47.989636 7.160744 36.760360
v 64.570330 7.160744 20.500984
v 62.701479 7.160744 19.955932
v 69.890423 7.160744 0.088005
v 67.867596 7.160744 0.133764
vt 0.095839 0.747893
vt 0.095839 0.808097
vt 0.081500 0.808097
vt 0.081500 0.747893
vt 0.095839 0.868340
vt 0.081500 0.868340
vt 0.068221 0.808097
vt 0.068221 0.747893
vt 0.095839 0.688727
vt 0.081500 0.688727
vt 0.095839 0.927624
vt 0.081500 0.927624
vt 0.068221 0.868340
vt 0.068221 0.688727
vt 0.095839 0.630367
vt 0.081500 0.630368
vt 0.095839 0.985509
vt 0.081500 0.985509
vt 0.068221 0.927624
vt 0.068221 0.630367
vt 0.068221 0.985509
vt 0.095839 0.278254
vt 0.095839 0.338468
vt 0.081500 0.338468
vt 0.081500 0.278254
vt 0.095839 0.398657
vt 0.081500 0.398657
vt 0.068221 0.338468
vt 0.068221 0.278254
vt 0.095839 0.219016
vt 0.081500 0.219016
vt 0.095839 0.457824
vt 0.081500 0.457824
vt 0.068221 0.398657
vt 0.068221 0.219016
vt 0.095839 0.161196
vt 0.081500 0.161196
vt 0.095839 0.515525
vt 0.081500 0.515525
vt 0.068221 0.457824
vt 0.068221 0.161196
vt 0.068221 0.515525
vt 0.020209 0.199862
vt 0.020209 0.139521
vt 0.037848 0.139521
vt 0.037848 0.199862
vt 0.020209 0.071067
vt 0.037848 0.071067
vt 0.020209 0.260561
vt 0.037848 0.260561
vt 0.020209 0.011992
vt 0.037848 0.011992
vt 0.020209 0.315674
vt 0.037848 0.315674
vt 0.020209 0.374894
vt 0.037848 0.374894
vt 0.020209 0.672903
vt 0.020209 0.611179
vt 0.037848 0.611179
vt 0.037848 0.672903
vt 0.020209 0.550467
vt 0.037848 0.550467
vt 0.020209 0.734610
vt 0.037848 0.734610
vt 0.020209 0.491228
vt 0.037848 0.491228
vt 0.020209 0.795269
vt 0.037848 0.795269
vt 0.020209 0.854419
vt 0.037848 0.854419
vt 0.903876 0.293282
vt 0.861582 0.332336
vt 0.780942 0.214982
vt 0.807011 0.353523
vt 0.927454 0.242308
vt 0.748472 0.353619
vt 0.928727 0.187173
vt 0.694876 0.332609
vt 0.907501 0.136272
vt 0.654383 0.293691
vt 0.867008 0.097354
vt 0.633157 0.242790
vt 0.813412 0.076344
vt 0.634430 0.187656
vt 0.754873 0.076440
vt 0.658009 0.136682
vt 0.700302 0.097628
vt 0.323233 0.033473
vt 0.268893 0.033473
vt 0.268893 0.027819
vt 0.323233 0.027819
vt 0.215845 0.033473
vt 0.215845 0.027819
vt 0.378479 0.033473
vt 0.378479 0.027819
vt 0.144279 0.033473
vt 0.144279 0.027819
vt 0.433707 0.033473
vt 0.433707 0.027819
vt 0.063835 0.033473
vt 0.987888 0.027819
vt 0.487990 0.033473
vt 0.487990 0.027819
vt 0.918300 0.033473
vt 0.918300 0.027819
vt 0.540930 0.033473
vt 0.540930 0.027819
vt 0.862749 0.033473
vt 0.862749 0.027819
vt 0.592914 0.033473
vt 0.592914 0.027819
vt 0.807443 0.033473
vt 0.807443 0.027819
vt 0.644907 0.033473
vt 0.644907 0.027819
vt 0.752182 0.033473
vt 0.752182 0.027781
vt 0.697870 0.033473
vt 0.697870 0.027819
vt 0.585720 0.174613
vt 0.585714 0.229467
vt 0.455857 0.205238
vt 0.565938 0.280632
vt 0.565955 0.124421
vt 0.529404 0.320320
vt 0.529429 0.086533
vt 0.481673 0.342487
vt 0.481702 0.066717
vt 0.430011 0.343759
vt 0.430041 0.067989
vt 0.382284 0.323943
vt 0.382309 0.090156
vt 0.345758 0.286055
vt 0.345775 0.129844
vt 0.325994 0.235863
vt 0.326000 0.181009
vt 0.095839 0.572902
vt 0.081500 0.572902
vt 0.068221 0.572902
vt 0.095839 0.047545
vt 0.095839 0.104389
vt 0.081500 0.104389
vt 0.081500 0.047545
vt 0.068221 0.104389
vt 0.068221 0.047545
vt 0.020209 0.912464
vt 0.037848 0.912464
vt 0.020209 0.970464
vt 0.037848 0.970464
vt 0.020209 0.433057
vt 0.037848 0.433057
vt 0.987882 0.033473
vt 0.063835 0.027819
vn 0.116843 -0.991124 -0.063413
vn 0.089778 -0.988991 -0.117630
vn 0.604344 -0.088399 -0.791804
vn 0.874642 -0.098436 -0.474670
vn 0.048803 -0.986807 -0.154373
vn 0.305728 -0.139442 -0.941853
vn 0.000000 -0.985884 -0.167427
vn 0.006957 -0.246359 -0.969154
vn -0.048803 -0.986807 -0.154373
vn -0.298624 -0.254447 -0.919826
vn -0.089778 -0.988991 -0.117630
vn -0.606817 -0.152381 -0.780098
vn -0.116842 -0.991124 -0.063413
vn -0.874641 -0.098437 -0.474671
vn -0.126282 -0.991994 -0.000000
vn -0.994571 -0.104057 -0.000009
vn -0.116843 -0.991124 0.063413
vn -0.874543 -0.099650 0.474600
vn -0.089778 -0.988991 0.117630
vn -0.604241 -0.090427 0.791654
vn -0.048803 -0.986807 0.154373
vn -0.300398 -0.083355 0.950165
vn -0.000000 -0.985884 0.167427
vn -0.000000 -0.080882 0.996724
vn 0.048803 -0.986807 0.154373
vn 0.300398 -0.083355 0.950165
vn 0.089778 -0.988991 0.117630
vn 0.604240 -0.090427 0.791654
vn 0.116843 -0.991124 0.063413
vn 0.874542 -0.099650 0.474600
vn 0.126282 -0.991994 0.000000
vn 0.994571 -0.104056 -0.000008
vn 0.000000 -1.000000 -0.000000
vn 0.848952 0.258785 -0.460771
vn 0.589373 0.237105 -0.772282
vn -0.368565 0.794245 0.483047
vn -0.499792 0.822560 0.271298
vn 0.308402 0.224299 -0.924434
vn -0.179694 0.802756 0.568588
vn 0.014516 0.150046 -0.988572
vn -0.000000 0.848390 0.529372
vn -0.312240 0.159850 -0.936458
vn 0.156294 0.854982 0.494548
vn -0.602646 0.245349 -0.759356
vn 0.342719 0.825098 0.449174
vn -0.848952 0.258785 -0.460772
vn 0.499791 0.822561 0.271298
vn -0.964011 0.265862 0.000017
vn 0.549719 0.835350 -0.000056
vn -0.851708 0.246725 0.462300
vn 0.499584 0.822688 -0.271296
vn -0.592228 0.216811 0.776054
vn 0.368342 0.794460 -0.482864
vn -0.295637 0.194601 0.935270
vn 0.192527 0.769209 -0.609304
vn -0.000000 0.186822 0.982394
vn 0.000000 0.759512 -0.650493
vn 0.295637 0.194599 0.935270
vn -0.192527 0.769208 -0.609304
vn 0.592228 0.216809 0.776054
vn -0.368342 0.794460 -0.482864
vn 0.851707 0.246725 0.462300
vn -0.499583 0.822688 -0.271296
vn 0.964011 0.265862 0.000017
vn -0.549720 0.835349 -0.000056
vn -0.106698 0.992606 -0.057873
vn -0.115410 0.993318 0.000012
vn 0.000000 1.000000 -0.000000
vn -0.081932 0.990846 -0.107295
vn -0.044519 0.989043 -0.140753
vn 0.000000 0.988283 -0.152632
vn 0.044519 0.989043 -0.140753
vn 0.081932 0.990846 -0.107295
vn 0.106699 0.992606 -0.057873
vn 0.115410 0.993318 0.000012
vn 0.106876 0.992580 0.057993
vn 0.082184 0.990786 0.107650
vn 0.044698 0.988951 0.141345
vn -0.000000 0.988176 0.153323
vn -0.044698 0.988951 0.141345
vn -0.082184 0.990786 0.107650
vn -0.106876 0.992580 0.057993
s 1
g pCylinder1
usemtl initialShadingGroup
f 1/26/1 2/32/2 18/33/3 17/27/4
f 2/32/2 3/38/5 19/39/6 18/33/3
f 3/38/5 4/137/7 20/138/8 19/39/6
f 4/137/7 5/15/9 21/16/10 20/138/8
f 5/15/9 6/9/11 22/10/12 21/16/10
f 6/9/11 7/1/13 23/4/14 22/10/12
f 7/1/13 8/2/15 24/3/16 23/4/14
f 8/2/15 9/5/17 25/6/18 24/3/16
f 9/5/17 10/11/19 26/12/20 25/6/18
f 10/11/19 11/17/21 27/18/22 26/12/20
f 11/140/21 12/141/23 28/142/24 27/143/22
f 12/141/23 13/36/25 29/37/26 28/142/24
f 13/36/25 14/30/27 30/31/28 29/37/26
f 14/30/27 15/22/29 31/25/30 30/31/28
f 15/22/29 16/23/31 32/24/32 31/25/30
f 16/23/31 1/26/1 17/27/4 32/24/32
f 2/71/2 1/72/1 33/73/33
f 3/75/5 2/71/2 33/73/33
f 4/77/7 3/75/5 33/73/33
f 5/79/9 4/77/7 33/73/33
f 6/81/11 5/79/9 33/73/33
f 7/83/13 6/81/11 33/73/33
f 8/85/15 7/83/13 33/73/33
f 9/87/17 8/85/15 33/73/33
f 10/86/19 9/87/17 33/73/33
f 11/84/21 10/86/19 33/73/33
f 12/82/23 11/84/21 33/73/33
f 13/80/25 12/82/23 33/73/33
f 14/78/27 13/80/25 33/73/33
f 15/76/29 14/78/27 33/73/33
f 16/74/31 15/76/29 33/73/33
f 1/72/1 16/74/31 33/73/33
f 51/88/34 52/89/35 53/90/36 54/91/37
f 52/89/35 55/92/38 56/93/39 53/90/36
f 55/92/38 57/96/40 58/97/41 56/93/39
f 57/96/40 59/100/42 60/153/43 58/97/41
f 59/152/42 61/104/44 62/105/45 60/101/43
f 61/104/44 63/108/46 64/109/47 62/105/45
f 63/108/46 65/112/48 66/113/49 64/109/47
f 65/112/48 67/116/50 68/117/51 66/113/49
f 67/116/50 69/118/52 70/119/53 68/117/51
f 69/118/52 71/114/54 72/115/55 70/119/53
f 71/114/54 73/110/56 74/111/57 72/115/55
f 73/110/56 75/106/58 76/107/59 74/111/57
f 75/106/58 77/102/60 78/103/61 76/107/59
f 77/102/60 79/98/62 80/99/63 78/103/61
f 79/98/62 81/94/64 82/95/65 80/99/63
f 81/94/64 51/88/34 54/91/37 82/95/65
f 36/120/66 35/121/67 34/122/68
f 37/124/69 36/120/66 34/122/68
f 38/126/70 37/124/69 34/122/68
f 39/128/71 38/126/70 34/122/68
f 40/130/72 39/128/71 34/122/68
f 41/132/73 40/130/72 34/122/68
f 42/134/74 41/132/73 34/122/68
f 43/136/75 42/134/74 34/122/68
f 44/135/76 43/136/75 34/122/68
f 45/133/77 44/135/76 34/122/68
f 46/131/78 45/133/77 34/122/68
f 47/129/79 46/131/78 34/122/68
f 48/127/80 47/129/79 34/122/68
f 49/125/81 48/127/80 34/122/68
f 50/123/82 49/125/81 34/122/68
f 35/121/67 50/123/82 34/122/68
f 17/27/4 18/33/3 52/40/35 51/34/34
f 49/67/81 50/63/82 54/64/37 53/68/36
f 18/33/3 19/39/6 55/42/38 52/40/35
f 48/69/80 49/67/81 53/68/36 56/70/39
f 19/39/6 20/138/8 57/139/40 55/42/38
f 47/146/79 48/69/80 56/70/39 58/147/41
f 20/138/8 21/16/10 59/20/42 57/139/40
f 46/148/78 47/146/79 58/147/41 60/149/43
f 21/16/10 22/10/12 61/14/44 59/20/42
f 45/47/77 46/51/78 60/52/43 62/48/45
f 22/10/12 23/4/14 63/8/46 61/14/44
f 44/44/76 45/47/77 62/48/45 64/45/47
f 23/4/14 24/3/16 65/7/48 63/8/46
f 43/43/75 44/44/76 64/45/47 66/46/49
f 24/3/16 25/6/18 67/13/50 65/7/48
f 42/49/74 43/43/75 66/46/49 68/50/51
f 25/6/18 26/12/20 69/19/52 67/13/50
f 41/53/73 42/49/74 68/50/51 70/54/53
f 26/12/20 27/18/22 71/21/54 69/19/52
f 40/55/72 41/53/73 70/54/53 72/56/55
f 27/143/22 28/142/24 73/144/56 71/145/54
f 39/150/71 40/55/72 72/56/55 74/151/57
f 28/142/24 29/37/26 75/41/58 73/144/56
f 38/65/70 39/150/71 74/151/57 76/66/59
f 29/37/26 30/31/28 77/35/60 75/41/58
f 37/61/69 38/65/70 76/66/59 78/62/61
f 30/31/28 31/25/30 79/29/62 77/35/60
f 36/58/66 37/61/69 78/62/61 80/59/63
f 31/25/30 32/24/32 81/28/64 79/29/62
f 35/57/67 36/58/66 80/59/63 82/60/65
f 32/24/32 17/27/4 51/34/34 81/28/64
f 50/63/82 35/57/67 82/60/65 54/64/37
